<svg width="32" height="36" viewBox="0 0 32 36" fill="none" xmlns="http://www.w3.org/2000/svg">
<path fill-rule="evenodd" clip-rule="evenodd" d="M15.0572 1.93934C15.5779 1.35355 16.4221 1.35355 16.9428 1.93934L25.4281 11.4853C25.9488 12.0711 25.9488 13.0208 25.4281 13.6066C24.9074 14.1924 24.0632 14.1924 23.5425 13.6066L17.3333 6.62132L17.3333 29.3787L23.5425 22.3934C24.0632 21.8076 24.9074 21.8076 25.4281 22.3934C25.9488 22.9792 25.9488 23.9289 25.4281 24.5147L16.9428 34.0607C16.4221 34.6464 15.5779 34.6464 15.0572 34.0607L6.5719 24.5147C6.0512 23.9289 6.0512 22.9792 6.5719 22.3934C7.0926 21.8076 7.93682 21.8076 8.45752 22.3934L14.6667 29.3787L14.6667 6.62132L8.45752 13.6066C7.93682 14.1924 7.0926 14.1924 6.5719 13.6066C6.0512 13.0208 6.0512 12.0711 6.5719 11.4853L15.0572 1.93934Z" fill="#222222"/>
</svg>
